<svg width="1000" height="1000" viewBox="0 0 1000 1000" fill="none" xmlns="http://www.w3.org/2000/svg">
<rect width="1000" height="1000" fill="#1E1E1E"/>
<rect width="1000" height="1000" fill="#D9D9D9"/>
<path fill-rule="evenodd" clip-rule="evenodd" d="M482.322 208.621L498.232 192.712C499.209 191.735 500.791 191.735 501.768 192.712L517.678 208.621C518.654 209.598 518.654 211.181 517.678 212.157C516.701 213.133 515.118 213.133 514.142 212.157L502.5 200.515V489.5H791.485L779.843 477.858C778.867 476.882 778.867 475.299 779.843 474.322C780.819 473.346 782.402 473.346 783.379 474.322L799.288 490.232C800.265 491.209 800.265 492.791 799.288 493.768L783.379 509.678C782.402 510.654 780.819 510.654 779.843 509.678C778.867 508.701 778.867 507.118 779.843 506.142L791.485 494.5H502.5V783.485L514.142 771.843C515.118 770.867 516.701 770.867 517.678 771.843C518.654 772.819 518.654 774.402 517.678 775.379L501.768 791.288C500.791 792.265 499.209 792.265 498.232 791.288L482.322 775.379C481.346 774.402 481.346 772.819 482.322 771.843C483.299 770.867 484.882 770.867 485.858 771.843L497.5 783.485V494.5H208.515L220.157 506.142C221.133 507.118 221.133 508.701 220.157 509.678C219.181 510.654 217.598 510.654 216.621 509.678L200.712 493.768C199.735 492.791 199.735 491.209 200.712 490.232L216.621 474.322C217.598 473.346 219.181 473.346 220.157 474.322C221.133 475.299 221.133 476.882 220.157 477.858L208.515 489.5H497.5V200.515L485.858 212.157C484.882 213.133 483.299 213.133 482.322 212.157C481.346 211.181 481.346 209.598 482.322 208.621Z" fill="black"/>
<rect x="852.5" y="294.5" width="95" height="395" rx="27.5" fill="#D9D9D9" stroke="black" stroke-width="5"/>
<rect x="302.5" y="844.5" width="395" height="95" rx="27.5" fill="#D9D9D9" stroke="black" stroke-width="5"/>
<rect x="572.5" y="522.5" width="255" height="65" fill="#D9D9D9" stroke="black" stroke-width="5"/>
<rect x="416.5" y="338.5" width="255" height="65" fill="#D9D9D9" stroke="black" stroke-width="5"/>
<path d="M617.24 543C616.92 543.36 616.44 543.96 616.16 544.4C614.56 547.12 610.76 552.28 606.2 555.44L603.52 553.32C607.24 551.2 611 546.88 612.28 544.4C609.48 544.4 591.4 544.4 589.48 544.4C588 544.4 586.52 544.48 584.96 544.6V541C586.36 541.2 588 541.36 589.48 541.36C591.4 541.36 610.08 541.36 612.48 541.36C613.24 541.36 614.68 541.24 615.24 541.08L617.24 543ZM601.24 548.24C601.24 559.08 600.28 566.4 590.08 571.52L587.16 569.12C588.24 568.76 589.64 568.08 590.76 567.32C596.92 563.52 597.8 557.84 597.8 551.16C597.8 550.2 597.8 549.32 597.64 548.24H601.24ZM648.8 551.64C648.8 562.28 646.48 567.76 637.36 571.88L634.68 569.32C641.96 566.56 645.56 563.12 645.56 551.88V542.16C645.56 540.6 645.44 539.28 645.36 538.92H649C648.96 539.32 648.8 540.6 648.8 542.16V551.64ZM634.36 539.16C634.32 539.52 634.2 540.68 634.2 542.04V556.72C634.2 558.2 634.32 559.96 634.36 560.32H630.8C630.84 559.96 631 558.24 631 556.72V542.04C631 541.2 630.92 540.08 630.8 539.16H634.36ZM622.68 546.92C623.04 546.96 625 547.2 626.68 547.2H653.16C654.96 547.2 656.28 547.04 656.84 546.96V550.36C656.4 550.32 654.96 550.24 653.2 550.24H626.68C624.92 550.24 623.12 550.36 622.68 550.36V546.92ZM672.72 539.24C672.6 540.2 672.52 541.36 672.52 542.48C672.52 544.64 672.52 560.72 672.52 563.6C672.52 565.68 673.36 566.2 675.32 566.56C676.56 566.8 678.64 566.92 680.6 566.92C684.84 566.92 690.96 566.48 694.28 565.6V569.28C690.8 569.8 684.8 570.08 680.44 570.08C678.08 570.08 675.68 570 674.04 569.72C670.96 569.16 669.24 567.76 669.24 564.48C669.24 560.64 669.24 544.64 669.24 542.48C669.24 541.4 669.16 540.04 669 539.24H672.72ZM671.04 551.88C675.84 550.84 683.56 548.48 688.16 546.48C689.4 545.96 690.56 545.4 691.68 544.68L693.12 547.88C691.96 548.36 690.52 549 689.32 549.44C684.36 551.48 676 553.96 671.04 555.2V551.88ZM729.12 538.68C730.12 540.12 731.56 542.52 732.36 544.16L730.2 545.12C729.4 543.52 728.08 541.12 727 539.6L729.12 538.68ZM733.48 537.08C734.56 538.56 736.08 541.04 736.84 542.52L734.68 543.48C733.84 541.76 732.52 539.48 731.4 538L733.48 537.08ZM711.16 540C711.04 540.96 710.92 542.12 710.92 543.24C710.92 545.4 710.92 561.48 710.92 564.36C710.92 566.44 711.8 566.96 713.72 567.32C715 567.56 717.04 567.64 719 567.64C723.24 567.64 729.36 567.24 732.72 566.36V570.04C729.24 570.56 723.24 570.84 718.88 570.84C716.48 570.84 714.12 570.76 712.44 570.48C709.4 569.92 707.68 568.52 707.68 565.24C707.68 561.4 707.68 545.4 707.68 543.24C707.68 542.28 707.6 540.96 707.44 540H711.16ZM709.44 552.64C714.28 551.6 721.52 549.4 726.16 547.44C727.36 546.88 728.52 546.32 729.68 545.6L731.08 548.8C729.92 549.28 728.48 549.92 727.28 550.4C722.32 552.4 714.4 554.72 709.48 555.96L709.44 552.64ZM744.04 552.68C745.28 552.8 747.36 552.92 749.64 552.92C752.56 552.92 768.6 552.92 771.56 552.92C773.56 552.92 774.96 552.76 775.88 552.68V556.6C775.04 556.56 773.36 556.44 771.6 556.44C768.56 556.44 752.6 556.44 749.64 556.44C747.44 556.44 745.32 556.52 744.04 556.6V552.68ZM800.92 569.16C801.08 568.56 801.2 567.72 801.2 566.92C801.2 565.08 801.2 545.48 801.2 542.96C801.2 541.44 801 540.32 801 540H804.68C804.64 540.32 804.48 541.48 804.48 543C804.48 545.48 804.48 564.84 804.48 566.04C808.2 564.36 813.12 560.72 816.16 556.2L818.08 558.96C814.6 563.64 809.08 567.72 804.44 570.04C803.76 570.36 803.36 570.72 803.04 570.92L800.92 569.16ZM782.6 569C786 566.6 788.36 563.04 789.56 559.16C790.76 555.48 790.76 547.52 790.76 543.04C790.76 541.88 790.68 541 790.48 540.16H794.16C794.12 540.6 793.96 541.84 793.96 543C793.96 547.44 793.84 556.04 792.76 560.04C791.56 564.32 789 568.2 785.64 571L782.6 569Z" fill="black"/>
<rect x="192.5" y="680.5" width="443" height="65" fill="#D9D9D9" stroke="black" stroke-width="5"/>
<path d="M222.44 698.16C223.44 698.24 224.4 698.28 225.64 698.28C227.4 698.28 235.64 697.92 237.92 697.68C238.88 697.6 239.64 697.44 240.12 697.28L242.12 699.56C241.6 699.92 240.56 700.6 240 701.08C237 703.52 231.24 708.36 228.04 710.92C234.12 710.24 241.32 709.72 247.04 709.72L247.08 712.68C243.16 712.48 239.32 712.52 236.92 712.88C233.04 713.44 229.2 716.72 229.2 720.48C229.2 724.52 232.44 725.88 236.12 726.4C238.48 726.68 240.4 726.6 241.84 726.48L241.2 729.76C231.4 730.16 226.08 727.12 226.08 720.96C226.08 717.56 228.68 714.64 230.76 713.4C226.48 713.76 221.12 714.4 216.32 715.2L216.04 712.2C218.2 711.96 220.92 711.64 222.96 711.4C227.32 708.36 233.64 702.8 236.2 700.56C234.4 700.68 227.4 701 225.68 701.16C224.64 701.24 223.48 701.36 222.6 701.44L222.44 698.16ZM274.52 700.72C274 704.88 273.2 709.56 271.96 713.84C269.52 722.04 266.32 726.28 262.64 726.28C259.04 726.28 255.48 722.2 255.48 715.56C255.48 706.88 263.2 699.32 273 699.32C282.36 699.32 288.32 705.92 288.32 714.04C288.32 722.4 282.8 728 273.28 729.24L271.44 726.28C272.72 726.16 273.92 726 274.88 725.8C280 724.64 285.04 720.8 285.04 713.88C285.04 707.48 280.6 702.2 272.92 702.2C264.12 702.2 258.64 709.44 258.64 715.32C258.64 720.36 260.92 722.6 262.72 722.6C264.6 722.6 266.76 719.88 268.8 713.12C269.96 709.32 270.8 704.8 271.2 700.64L274.52 700.72ZM316.76 694.48H319.6V722.28H316.76V694.48ZM302.84 710.96L326.88 701.64L328.04 704.24L303.96 713.6L302.84 710.96ZM307.88 698.4H310.84V725.16C310.84 727.44 311.4 727.96 314.24 727.96C315.6 727.96 322.76 727.96 324.52 727.96C326.96 727.96 327.4 726.84 327.72 722.12C328.44 722.64 329.64 723.16 330.52 723.36C330 728.88 329.04 730.68 324.6 730.68C323.44 730.68 315.2 730.68 314.12 730.68C309.28 730.68 307.88 729.56 307.88 725.12V698.4ZM325.88 702.32H325.52L326.24 701.72L326.76 701.24L328.84 702.12L328.72 702.6C328.68 709.88 328.6 715.64 328.2 717.36C327.88 719.2 327.04 719.96 325.8 720.28C324.72 720.56 322.96 720.6 321.76 720.56C321.68 719.72 321.36 718.48 321 717.8C322.12 717.84 323.56 717.84 324.08 717.84C324.76 717.84 325.2 717.68 325.48 716.64C325.8 715.36 325.88 710.12 325.88 702.32ZM302.64 694.56L305.4 695.44C302.8 702.16 298.68 708.96 294.4 713.44C294.08 712.76 293.24 711.2 292.72 710.52C296.68 706.64 300.4 700.64 302.64 694.56ZM298.4 704.88L301.28 701.96L301.32 702V731.16H298.4V704.88ZM366.12 695.76L368.44 698.04C363.12 699.72 355.12 700.96 348.24 701.72C348.12 701.04 347.72 699.96 347.4 699.28C354.04 698.56 361.8 697.2 366.12 695.76ZM346.56 698.48L349.48 699.44V722.92H346.56V698.48ZM343.88 722.4C347.68 721.8 353.28 720.84 358.76 719.8L358.92 722.52C353.84 723.48 348.52 724.48 344.52 725.2L343.88 722.4ZM348.24 708.44H370.36V711.2H348.24V708.44ZM357.48 699.32H360.52C360.56 714.44 363.92 726.76 367.36 726.72C368.16 726.72 368.56 725.12 368.72 721.2C369.36 721.84 370.4 722.44 371.12 722.72C370.68 728.16 369.64 729.68 367.08 729.68C361.04 729.68 357.8 715.4 357.48 699.32ZM345.08 727.48H362.12V730.16H345.08V727.48ZM342.56 694.56L345.4 695.44C342.76 702.24 338.64 709 334.32 713.48C334 712.8 333.16 711.2 332.6 710.52C336.56 706.64 340.32 700.64 342.56 694.56ZM338.4 704.88L341.2 702.04L341.28 702.08V731.16H338.4V704.88ZM384.52 698.48H410V701.2H384.52V698.48ZM385.04 707.76H409.68V730.32H406.8V710.44H387.84V730.56H385.04V707.76ZM392.04 698.88H394.88V709.68H392.04V698.88ZM399.48 698.88H402.36V709.68H399.48V698.88ZM386.32 725.28H408.84V727.92H386.32V725.28ZM392.28 709.6H394.88V727.28H392.28V709.6ZM399.48 709.6H402.08V727.28H399.48V709.6ZM382.12 694.52L384.84 695.4C382.36 702 378.52 708.64 374.4 713.08C374.12 712.4 373.28 710.88 372.72 710.16C376.48 706.36 380 700.48 382.12 694.52ZM378.16 704.92L380.96 702.12L381 702.16V731.2H378.16V704.92ZM434.12 698.72H445.4V701.36H434.12V698.72ZM430.48 716.56H447.32V731.12H444.44V719.16H433.28V731.24H430.48V716.56ZM431.68 726.84H445.96V729.48H431.68V726.84ZM435.28 694.36L438.16 695.16C436 700.48 432.48 705.48 428.84 708.64C428.36 708.12 427.16 707.08 426.48 706.64C430.16 703.76 433.4 699.2 435.28 694.36ZM444.56 698.72H445.12L445.64 698.6L447.52 699.48C444.08 709.4 435.84 715.76 427.32 718.84C426.96 718.08 426.2 716.96 425.6 716.4C433.64 713.88 441.64 707.72 444.56 699.24V698.72ZM433.88 700.8C436.36 706.48 442.24 712.76 451.04 715.44C450.44 716 449.6 717.2 449.2 717.92C440.28 714.8 434.4 708.16 431.68 702.2L433.88 700.8ZM414.04 703H428.12V705.84H414.04V703ZM420.08 694.4H422.92V731.16H420.08V694.4ZM419.96 704.76L421.84 705.4C420.52 711.84 417.68 719.64 414.68 723.68C414.36 722.88 413.64 721.72 413.08 721.04C415.92 717.44 418.76 710.52 419.96 704.76ZM422.72 707.44C423.68 708.4 427.2 712.68 428 713.76L426.2 716.08C425.24 714.32 422.36 710.2 421.24 708.76L422.72 707.44ZM474.52 700.72C474 704.88 473.2 709.56 471.96 713.84C469.52 722.04 466.32 726.28 462.64 726.28C459.04 726.28 455.48 722.2 455.48 715.56C455.48 706.88 463.2 699.32 473 699.32C482.36 699.32 488.32 705.92 488.32 714.04C488.32 722.4 482.8 728 473.28 729.24L471.44 726.28C472.72 726.16 473.92 726 474.88 725.8C480 724.64 485.04 720.8 485.04 713.88C485.04 707.48 480.6 702.2 472.92 702.2C464.12 702.2 458.64 709.44 458.64 715.32C458.64 720.36 460.92 722.6 462.72 722.6C464.6 722.6 466.76 719.88 468.8 713.12C469.96 709.32 470.8 704.8 471.2 700.64L474.52 700.72ZM521.12 696.68C522.12 698.12 523.56 700.52 524.36 702.16L522.2 703.12C521.4 701.52 520.08 699.12 519 697.6L521.12 696.68ZM525.48 695.08C526.56 696.56 528.08 699.04 528.84 700.52L526.68 701.48C525.84 699.76 524.52 697.48 523.4 696L525.48 695.08ZM503.16 698C503.04 698.96 502.92 700.12 502.92 701.24C502.92 703.4 502.92 719.48 502.92 722.36C502.92 724.44 503.8 724.96 505.72 725.32C507 725.56 509.04 725.64 511 725.64C515.24 725.64 521.36 725.24 524.72 724.36V728.04C521.24 728.56 515.24 728.84 510.88 728.84C508.48 728.84 506.12 728.76 504.44 728.48C501.4 727.92 499.68 726.52 499.68 723.24C499.68 719.4 499.68 703.4 499.68 701.24C499.68 700.28 499.6 698.96 499.44 698H503.16ZM501.44 710.64C506.28 709.6 513.52 707.4 518.16 705.44C519.36 704.88 520.52 704.32 521.68 703.6L523.08 706.8C521.92 707.28 520.48 707.92 519.28 708.4C514.32 710.4 506.4 712.72 501.48 713.96L501.44 710.64ZM536.04 710.68C537.28 710.8 539.36 710.92 541.64 710.92C544.56 710.92 560.6 710.92 563.56 710.92C565.56 710.92 566.96 710.76 567.88 710.68V714.6C567.04 714.56 565.36 714.44 563.6 714.44C560.56 714.44 544.6 714.44 541.64 714.44C539.44 714.44 537.32 714.52 536.04 714.6V710.68ZM592.92 727.16C593.08 726.56 593.2 725.72 593.2 724.92C593.2 723.08 593.2 703.48 593.2 700.96C593.2 699.44 593 698.32 593 698H596.68C596.64 698.32 596.48 699.48 596.48 701C596.48 703.48 596.48 722.84 596.48 724.04C600.2 722.36 605.12 718.72 608.16 714.2L610.08 716.96C606.6 721.64 601.08 725.72 596.44 728.04C595.76 728.36 595.36 728.72 595.04 728.92L592.92 727.16ZM574.6 727C578 724.6 580.36 721.04 581.56 717.16C582.76 713.48 582.76 705.52 582.76 701.04C582.76 699.88 582.68 699 582.48 698.16H586.16C586.12 698.6 585.96 699.84 585.96 701C585.96 705.44 585.84 714.04 584.76 718.04C583.56 722.32 581 726.2 577.64 729L574.6 727Z" fill="black"/>
<path d="M439.64 357.72C439.44 356.72 439.2 355.84 438.92 355L442.48 354.4C442.56 355.12 442.72 356.28 442.88 357.16C443.12 358.92 447.52 380.88 448.08 383.52C448.36 384.64 448.68 386 449.08 387.16L445.4 387.84C445.2 386.48 445.08 385.24 444.8 384.08C444.4 381.56 440.12 359.8 439.64 357.72ZM428.36 363.52C429.36 363.44 430.44 363.36 431.72 363.24C435.32 362.84 449.12 360.64 452.92 359.88C454.08 359.68 455.12 359.44 455.8 359.24L456.44 362.6C455.84 362.64 454.64 362.84 453.56 363C449.44 363.64 435.8 365.8 432.28 366.4C431.2 366.6 430.24 366.8 429.08 367.08L428.36 363.52ZM428.24 375.04C429.2 375 430.72 374.84 431.76 374.68C436.04 374.12 450.92 371.68 455.72 370.8C457.24 370.52 458.4 370.24 459.24 370L459.92 373.36C459.08 373.44 457.8 373.68 456.32 373.92C451 374.72 436.56 377.08 432.52 377.8C430.96 378.08 429.84 378.32 428.96 378.56L428.24 375.04ZM495 355.68C494.92 356.64 494.88 357.8 494.88 359.16C494.88 360.72 494.88 364.12 494.88 365.6C494.88 375.24 493.6 378.4 490.68 381.8C488.12 384.92 484.12 386.68 481.2 387.68L478.56 384.92C482.24 383.96 485.64 382.4 488.12 379.56C490.96 376.28 491.48 373 491.48 365.48C491.48 363.92 491.48 360.56 491.48 359.16C491.48 357.8 491.36 356.64 491.24 355.68H495ZM476.44 356C476.36 356.76 476.32 357.92 476.32 358.84C476.32 360.04 476.32 370.52 476.32 372.2C476.32 373.24 476.36 374.56 476.44 375.28H472.8C472.88 374.64 472.96 373.36 472.96 372.2C472.96 370.48 472.96 360.04 472.96 358.84C472.96 358.16 472.92 356.76 472.8 356H476.44ZM513.08 356.72C515.88 358.6 521.04 362.76 523.24 364.96L520.76 367.52C518.72 365.44 513.76 361.12 510.76 359.16L513.08 356.72ZM509.64 383.52C516.6 382.48 521.8 380.04 525.6 377.68C531.8 373.8 536.64 367.88 538.96 362.92L540.88 366.36C538.16 371.32 533.52 376.76 527.48 380.56C523.44 383.08 518.4 385.56 511.72 386.8L509.64 383.52ZM573.12 354.68C574.12 356.12 575.56 358.52 576.36 360.16L574.2 361.12C573.4 359.52 572.08 357.12 571 355.6L573.12 354.68ZM577.48 353.08C578.56 354.56 580.08 357.04 580.84 358.52L578.68 359.48C577.84 357.76 576.52 355.48 575.4 354L577.48 353.08ZM555.16 356C555.04 356.96 554.92 358.12 554.92 359.24C554.92 361.4 554.92 377.48 554.92 380.36C554.92 382.44 555.8 382.96 557.72 383.32C559 383.56 561.04 383.64 563 383.64C567.24 383.64 573.36 383.24 576.72 382.36V386.04C573.24 386.56 567.24 386.84 562.88 386.84C560.48 386.84 558.12 386.76 556.44 386.48C553.4 385.92 551.68 384.52 551.68 381.24C551.68 377.4 551.68 361.4 551.68 359.24C551.68 358.28 551.6 356.96 551.44 356H555.16ZM553.44 368.64C558.28 367.6 565.52 365.4 570.16 363.44C571.36 362.88 572.52 362.32 573.68 361.6L575.08 364.8C573.92 365.28 572.48 365.92 571.28 366.4C566.32 368.4 558.4 370.72 553.48 371.96L553.44 368.64ZM588.04 368.68C589.28 368.8 591.36 368.92 593.64 368.92C596.56 368.92 612.6 368.92 615.56 368.92C617.56 368.92 618.96 368.76 619.88 368.68V372.6C619.04 372.56 617.36 372.44 615.6 372.44C612.56 372.44 596.6 372.44 593.64 372.44C591.44 372.44 589.32 372.52 588.04 372.6V368.68ZM644.92 385.16C645.08 384.56 645.2 383.72 645.2 382.92C645.2 381.08 645.2 361.48 645.2 358.96C645.2 357.44 645 356.32 645 356H648.68C648.64 356.32 648.48 357.48 648.48 359C648.48 361.48 648.48 380.84 648.48 382.04C652.2 380.36 657.12 376.72 660.16 372.2L662.08 374.96C658.6 379.64 653.08 383.72 648.44 386.04C647.76 386.36 647.36 386.72 647.04 386.92L644.92 385.16ZM626.6 385C630 382.6 632.36 379.04 633.56 375.16C634.76 371.48 634.76 363.52 634.76 359.04C634.76 357.88 634.68 357 634.48 356.16H638.16C638.12 356.6 637.96 357.84 637.96 359C637.96 363.44 637.84 372.04 636.76 376.04C635.56 380.32 633 384.2 629.64 387L626.6 385Z" fill="black"/>
<rect x="322.5" y="232.5" width="255" height="65" fill="#D9D9D9" stroke="black" stroke-width="5"/>
<path d="M335.8 253.28C336.84 253.4 338.32 253.48 339.16 253.48H361.12C362.36 253.48 363.6 253.4 364.56 253.28V256.76C363.56 256.68 362.28 256.6 361.12 256.6H339.16C338.36 256.6 336.8 256.68 335.8 256.76V253.28ZM348.16 276.76V255.28H351.56V276.76H348.16ZM333.36 274.8C334.52 274.96 335.76 275.04 336.88 275.04H363.32C364.52 275.04 365.6 274.88 366.6 274.8V278.4C365.56 278.28 364.08 278.28 363.32 278.28H336.88C335.8 278.28 334.56 278.32 333.36 278.4V274.8ZM399.12 248.68C400.12 250.12 401.56 252.52 402.36 254.16L400.2 255.12C399.4 253.52 398.08 251.12 397 249.6L399.12 248.68ZM403.48 247.08C404.56 248.56 406.08 251.04 406.84 252.52L404.68 253.48C403.84 251.76 402.52 249.48 401.4 248L403.48 247.08ZM381.16 250C381.04 250.96 380.92 252.12 380.92 253.24C380.92 255.4 380.92 271.48 380.92 274.36C380.92 276.44 381.8 276.96 383.72 277.32C385 277.56 387.04 277.64 389 277.64C393.24 277.64 399.36 277.24 402.72 276.36V280.04C399.24 280.56 393.24 280.84 388.88 280.84C386.48 280.84 384.12 280.76 382.44 280.48C379.4 279.92 377.68 278.52 377.68 275.24C377.68 271.4 377.68 255.4 377.68 253.24C377.68 252.28 377.6 250.96 377.44 250H381.16ZM379.44 262.64C384.28 261.6 391.52 259.4 396.16 257.44C397.36 256.88 398.52 256.32 399.68 255.6L401.08 258.8C399.92 259.28 398.48 259.92 397.28 260.4C392.32 262.4 384.4 264.72 379.48 265.96L379.44 262.64ZM441.96 253.28C441.72 253.6 441.2 254.48 441 255C439.4 258.96 436.36 264.56 433.04 268.24C428.56 273.24 422.84 278 416.52 280.88L413.96 278.2C420.44 275.72 426.32 270.92 430.44 266.36C433.16 263.28 436.08 258.52 437.12 255.2C435.68 255.2 422.88 255.2 421.52 255.2C420.08 255.2 417.92 255.36 417.48 255.4V251.8C418 251.88 420.28 252.04 421.52 252.04C423.08 252.04 435.44 252.04 436.96 252.04C438.24 252.04 439.32 251.92 439.96 251.72L441.96 253.28ZM433.56 266.16C437.88 269.76 443.2 275.36 445.92 278.68L443.16 281.12C440.28 277.32 435.6 272.2 431.28 268.4L433.56 266.16ZM479.12 248.68C480.12 250.12 481.56 252.52 482.36 254.16L480.2 255.12C479.4 253.52 478.08 251.12 477 249.6L479.12 248.68ZM483.48 247.08C484.56 248.56 486.08 251.04 486.84 252.52L484.68 253.48C483.84 251.76 482.52 249.48 481.4 248L483.48 247.08ZM461.16 250C461.04 250.96 460.92 252.12 460.92 253.24C460.92 255.4 460.92 271.48 460.92 274.36C460.92 276.44 461.8 276.96 463.72 277.32C465 277.56 467.04 277.64 469 277.64C473.24 277.64 479.36 277.24 482.72 276.36V280.04C479.24 280.56 473.24 280.84 468.88 280.84C466.48 280.84 464.12 280.76 462.44 280.48C459.4 279.92 457.68 278.52 457.68 275.24C457.68 271.4 457.68 255.4 457.68 253.24C457.68 252.28 457.6 250.96 457.44 250H461.16ZM459.44 262.64C464.28 261.6 471.52 259.4 476.16 257.44C477.36 256.88 478.52 256.32 479.68 255.6L481.08 258.8C479.92 259.28 478.48 259.92 477.28 260.4C472.32 262.4 464.4 264.72 459.48 265.96L459.44 262.64ZM494.04 262.68C495.28 262.8 497.36 262.92 499.64 262.92C502.56 262.92 518.6 262.92 521.56 262.92C523.56 262.92 524.96 262.76 525.88 262.68V266.6C525.04 266.56 523.36 266.44 521.6 266.44C518.56 266.44 502.6 266.44 499.64 266.44C497.44 266.44 495.32 266.52 494.04 266.6V262.68ZM550.92 279.16C551.08 278.56 551.2 277.72 551.2 276.92C551.2 275.08 551.2 255.48 551.2 252.96C551.2 251.44 551 250.32 551 250H554.68C554.64 250.32 554.48 251.48 554.48 253C554.48 255.48 554.48 274.84 554.48 276.04C558.2 274.36 563.12 270.72 566.16 266.2L568.08 268.96C564.6 273.64 559.08 277.72 554.44 280.04C553.76 280.36 553.36 280.72 553.04 280.92L550.92 279.16ZM532.6 279C536 276.6 538.36 273.04 539.56 269.16C540.76 265.48 540.76 257.52 540.76 253.04C540.76 251.88 540.68 251 540.48 250.16H544.16C544.12 250.6 543.96 251.84 543.96 253C543.96 257.44 543.84 266.04 542.76 270.04C541.56 274.32 539 278.2 535.64 281L532.6 279Z" fill="black"/>
<rect x="464.5" y="423.5" width="295" height="65" fill="#D9D9D9" stroke="black" stroke-width="5"/>
<path d="M500.8 452.64C500.8 463.28 498.48 468.76 489.36 472.88L486.68 470.32C493.96 467.56 497.56 464.12 497.56 452.88V443.16C497.56 441.6 497.44 440.28 497.36 439.92H501C500.96 440.32 500.8 441.6 500.8 443.16V452.64ZM486.36 440.16C486.32 440.52 486.2 441.68 486.2 443.04V457.72C486.2 459.2 486.32 460.96 486.36 461.32H482.8C482.84 460.96 483 459.24 483 457.72V443.04C483 442.2 482.92 441.08 482.8 440.16H486.36ZM474.68 447.92C475.04 447.96 477 448.2 478.68 448.2H505.16C506.96 448.2 508.28 448.04 508.84 447.96V451.36C508.4 451.32 506.96 451.24 505.2 451.24H478.68C476.92 451.24 475.12 451.36 474.68 451.36V447.92ZM531.32 448C532 449.6 533.96 454.88 534.44 456.6L531.48 457.68C531.04 455.84 529.2 450.76 528.36 449L531.32 448ZM545.8 450.24C545.52 451.04 545.32 451.68 545.16 452.2C544.12 456.6 542.36 460.92 539.52 464.52C535.8 469.2 530.92 472.32 526.48 474L523.84 471.32C528.44 469.96 533.56 466.92 536.84 462.84C539.68 459.36 541.72 454.24 542.36 449.12L545.8 450.24ZM522 450C522.8 451.68 524.92 456.92 525.64 459.04L522.64 460.16C522 458.08 519.84 452.52 519.04 451.12L522 450ZM582.16 441.48C582.16 442.88 583.28 444 584.72 444C586.12 444 587.28 442.88 587.28 441.48C587.28 440.04 586.12 438.88 584.72 438.88C583.28 438.88 582.16 440.04 582.16 441.48ZM580.36 441.48C580.36 439.04 582.28 437.08 584.72 437.08C587.12 437.08 589.12 439.04 589.12 441.48C589.12 443.88 587.12 445.84 584.72 445.84C582.28 445.84 580.36 443.88 580.36 441.48ZM573.64 440.2C573.56 440.76 573.4 442.2 573.4 443.04C573.4 445.16 573.4 448.52 573.4 450.48C573.4 453.72 573.4 466.68 573.4 469.56C573.4 471.64 572.4 472.72 569.96 472.72C568.28 472.72 565.92 472.64 564.28 472.44L564 469.28C565.76 469.6 567.56 469.72 568.64 469.72C569.72 469.72 570.16 469.28 570.16 468.2C570.2 466.04 570.2 452.36 570.2 450.48C570.2 449.12 570.2 445.16 570.2 443.04C570.2 442.16 570.04 440.8 569.92 440.2H573.64ZM555.68 446.92C556.8 447.08 557.8 447.16 559.04 447.16C561.4 447.16 581.6 447.16 584 447.16C584.92 447.16 586.24 447.08 587.24 446.96V450.28C586.2 450.2 585 450.16 584.04 450.16C581.64 450.16 561.52 450.16 559.08 450.16C557.84 450.16 556.72 450.2 555.68 450.32V446.92ZM564.88 456.36C563.16 459.76 559.44 464.88 557.16 467.32L554.4 465.44C557.08 463 560.48 458.24 562.04 455L564.88 456.36ZM581.56 455C583.72 457.56 586.88 462.56 588.48 465.48L585.56 467.12C583.96 463.96 580.96 459 578.84 456.48L581.56 455ZM597.84 443.6C599.4 443.68 600.44 443.68 601.4 443.68C603.52 443.68 620.92 443.68 622.88 443.68C623.72 443.68 625.16 443.68 626.4 443.64C626.32 444.6 626.32 445.72 626.32 446.72C626.32 448.6 626.32 464.92 626.32 466.44C626.32 467.72 626.36 470.84 626.4 471.28H622.92C622.96 470.84 623 468.56 623 466.88C623 465.4 623 446.84 623 446.84H601.16C601.16 446.84 601.16 465.24 601.16 466.88C601.16 468.2 601.2 470.76 601.2 471.28H597.8C597.8 470.76 597.88 467.84 597.88 466.44C597.88 464.8 597.88 448.28 597.88 446.72C597.88 445.8 597.88 444.6 597.84 443.6ZM624.32 465.88V469H599.56V465.88H624.32ZM661.12 439.68C662.12 441.12 663.56 443.52 664.36 445.16L662.2 446.12C661.4 444.52 660.08 442.12 659 440.6L661.12 439.68ZM665.48 438.08C666.56 439.56 668.08 442.04 668.84 443.52L666.68 444.48C665.84 442.76 664.52 440.48 663.4 439L665.48 438.08ZM643.16 441C643.04 441.96 642.92 443.12 642.92 444.24C642.92 446.4 642.92 462.48 642.92 465.36C642.92 467.44 643.8 467.96 645.72 468.32C647 468.56 649.04 468.64 651 468.64C655.24 468.64 661.36 468.24 664.72 467.36V471.04C661.24 471.56 655.24 471.84 650.88 471.84C648.48 471.84 646.12 471.76 644.44 471.48C641.4 470.92 639.68 469.52 639.68 466.24C639.68 462.4 639.68 446.4 639.68 444.24C639.68 443.28 639.6 441.96 639.44 441H643.16ZM641.44 453.64C646.28 452.6 653.52 450.4 658.16 448.44C659.36 447.88 660.52 447.32 661.68 446.6L663.08 449.8C661.92 450.28 660.48 450.92 659.28 451.4C654.32 453.4 646.4 455.72 641.48 456.96L641.44 453.64ZM676.04 453.68C677.28 453.8 679.36 453.92 681.64 453.92C684.56 453.92 700.6 453.92 703.56 453.92C705.56 453.92 706.96 453.76 707.88 453.68V457.6C707.04 457.56 705.36 457.44 703.6 457.44C700.56 457.44 684.6 457.44 681.64 457.44C679.44 457.44 677.32 457.52 676.04 457.6V453.68ZM732.92 470.16C733.08 469.56 733.2 468.72 733.2 467.92C733.2 466.08 733.2 446.48 733.2 443.96C733.2 442.44 733 441.32 733 441H736.68C736.64 441.32 736.48 442.48 736.48 444C736.48 446.48 736.48 465.84 736.48 467.04C740.2 465.36 745.12 461.72 748.16 457.2L750.08 459.96C746.6 464.64 741.08 468.72 736.44 471.04C735.76 471.36 735.36 471.72 735.04 471.92L732.92 470.16ZM714.6 470C718 467.6 720.36 464.04 721.56 460.16C722.76 456.48 722.76 448.52 722.76 444.04C722.76 442.88 722.68 442 722.48 441.16H726.16C726.12 441.6 725.96 442.84 725.96 444C725.96 448.44 725.84 457.04 724.76 461.04C723.56 465.32 721 469.2 717.64 472L714.6 470Z" fill="black"/>
<rect x="302.5" y="44.5" width="395" height="95" rx="27.5" fill="#D9D9D9" stroke="black" stroke-width="5"/>
<rect x="52.5" y="302.5" width="95" height="395" rx="27.5" fill="#D9D9D9" stroke="black" stroke-width="5"/>
<path d="M866.25 404.92H934.47V411.22H866.25V404.92ZM859.86 428.05H940.14V434.44H859.86V428.05ZM864.18 448.48H936.36V454.96H864.18V448.48ZM896.22 393.4H903.24V407.62H896.22V393.4ZM896.22 434.17H903.24V476.29H896.22V434.17ZM878.31 413.47L884.25 411.49C887.04 415.99 890.01 421.84 891.09 425.62L884.79 427.87C883.71 424.09 880.92 417.97 878.31 413.47ZM916.56 411.13L923.67 413.02C920.7 418.96 917.1 425.98 914.04 430.39L908.28 428.68C911.16 424 914.67 416.44 916.56 411.13ZM907.3 519.2C906.7 517 905.8 514 904.8 511.3L913.4 510.3C914.3 516.1 916.9 524.7 919.2 531.2C922.3 539.8 927.4 549.1 931.7 554.9C933 556.9 934.5 558.6 936 560.2L932 565.9C927.2 564.7 915 563.6 907.8 563.1L908.4 556.5C914 557 921.4 557.6 925 558C920.8 551.6 915.3 541.7 912 532.6C909.8 526.9 908.4 522.3 907.3 519.2ZM870.7 527C887.4 528.9 903.2 529 914.6 527.8C922.5 526.9 932.4 525.1 940.2 522.4L941.1 530.3C934 532.3 924.5 533.9 917.2 534.8C904.5 536.3 888.6 536.4 870.9 534.9L870.7 527ZM886.2 558.8C883.2 563.7 881.4 568 881.4 572.7C881.4 582.3 890.1 586.4 905 586.6C915.1 586.6 923.8 585.6 930.7 584.1L930.4 592.1C924.1 593.2 915.7 594.3 904.5 594.2C885.5 594.1 873.5 587.3 873.5 573.7C873.5 568.1 875.5 562.9 878.4 557L886.2 558.8Z" fill="black"/>
<path d="M59.32 410.68H140.68V417.34H59.32V410.68ZM79.75 463.42H119.89V470.08H79.75V463.42ZM79.75 436.96H119.89V443.53H79.75V436.96ZM75.97 393.85H83.08V476.2H75.97V393.85ZM116.92 393.85H124.12V475.66H116.92V393.85ZM102.07 514.28C101.53 512.3 100.72 509.6 99.82 507.17L107.56 506.27C108.37 511.49 110.71 519.23 112.78 525.08C115.57 532.82 120.16 541.19 124.03 546.41C125.2 548.21 126.55 549.74 127.9 551.18L124.3 556.31C119.98 555.23 109 554.24 102.52 553.79L103.06 547.85C108.1 548.3 114.76 548.84 118 549.2C114.22 543.44 109.27 534.53 106.3 526.34C104.32 521.21 103.06 517.07 102.07 514.28ZM69.13 521.3C84.16 523.01 98.38 523.1 108.64 522.02C115.75 521.21 124.66 519.59 131.68 517.16L132.49 524.27C126.1 526.07 117.55 527.51 110.98 528.32C99.55 529.67 85.24 529.76 69.31 528.41L69.13 521.3ZM83.08 549.92C80.38 554.33 78.76 558.2 78.76 562.43C78.76 571.07 86.59 574.76 100 574.94C109.09 574.94 116.92 574.04 123.13 572.69L122.86 579.89C117.19 580.88 109.63 581.87 99.55 581.78C82.45 581.69 71.65 575.57 71.65 563.33C71.65 558.29 73.45 553.61 76.06 548.3L83.08 549.92Z" fill="black"/>
<path d="M370.85 62.04H449.06V67.89H370.85V62.04ZM406.04 53.4H412.97V64.83H406.04V53.4ZM374.81 97.23H441.68V102.99H381.38V136.29H374.81V97.23ZM438.89 97.23H445.64V128.19C445.64 131.88 444.83 133.86 441.95 135.03C439.07 136.02 434.21 136.11 426.74 136.11C426.47 134.22 425.48 131.52 424.49 129.72C430.43 129.9 435.47 129.9 437 129.72C438.53 129.72 438.89 129.27 438.89 128.01V97.23ZM392.81 108.84H398.84V132.42H392.81V108.84ZM396.05 108.84H427.19V127.83H396.05V122.97H421.07V113.7H396.05V108.84ZM392.27 77.88V86.61H427.46V77.88H392.27ZM385.79 72.93H434.3V91.56H385.79V72.93ZM483.17 62.58H540.5V68.7H483.17V62.58ZM484.34 83.46H539.78V134.22H533.3V89.49H490.64V134.76H484.34V83.46ZM500.09 63.48H506.48V87.78H500.09V63.48ZM516.83 63.48H523.31V87.78H516.83V63.48ZM487.22 122.88H537.89V128.82H487.22V122.88ZM500.63 87.6H506.48V127.38H500.63V87.6ZM516.83 87.6H522.68V127.38H516.83V87.6ZM477.77 53.67L483.89 55.65C478.31 70.5 469.67 85.44 460.4 95.43C459.77 93.9 457.88 90.48 456.62 88.86C465.08 80.31 473 67.08 477.77 53.67ZM468.86 77.07L475.16 70.77L475.25 70.86V136.2H468.86V77.07ZM594.77 63.12H620.15V69.06H594.77V63.12ZM586.58 103.26H624.47V136.02H617.99V109.11H592.88V136.29H586.58V103.26ZM589.28 126.39H621.41V132.33H589.28V126.39ZM597.38 53.31L603.86 55.11C599 67.08 591.08 78.33 582.89 85.44C581.81 84.27 579.11 81.93 577.58 80.94C585.86 74.46 593.15 64.2 597.38 53.31ZM618.26 63.12H619.52L620.69 62.85L624.92 64.83C617.18 87.15 598.64 101.46 579.47 108.39C578.66 106.68 576.95 104.16 575.6 102.9C593.69 97.23 611.69 83.37 618.26 64.29V63.12ZM594.23 67.8C599.81 80.58 613.04 94.71 632.84 100.74C631.49 102 629.6 104.7 628.7 106.32C608.63 99.3 595.4 84.36 589.28 70.95L594.23 67.8ZM549.59 72.75H581.27V79.14H549.59V72.75ZM563.18 53.4H569.57V136.11H563.18V53.4ZM562.91 76.71L567.14 78.15C564.17 92.64 557.78 110.19 551.03 119.28C550.31 117.48 548.69 114.87 547.43 113.34C553.82 105.24 560.21 89.67 562.91 76.71ZM569.12 82.74C571.28 84.9 579.2 94.53 581 96.96L576.95 102.18C574.79 98.22 568.31 88.95 565.79 85.71L569.12 82.74Z" fill="black"/>
<path d="M441.77 856.46L446.99 861.59C435.02 865.37 417.02 868.16 401.54 869.87C401.27 868.34 400.37 865.91 399.65 864.38C414.59 862.76 432.05 859.7 441.77 856.46ZM397.76 862.58L404.33 864.74V917.57H397.76V862.58ZM391.73 916.4C400.28 915.05 412.88 912.89 425.21 910.55L425.57 916.67C414.14 918.83 402.17 921.08 393.17 922.7L391.73 916.4ZM401.54 884.99H451.31V891.2H401.54V884.99ZM422.33 864.47H429.17C429.26 898.49 436.82 926.21 444.56 926.12C446.36 926.12 447.26 922.52 447.62 913.7C449.06 915.14 451.4 916.49 453.02 917.12C452.03 929.36 449.69 932.78 443.93 932.78C430.34 932.78 423.05 900.65 422.33 864.47ZM394.43 927.83H432.77V933.86H394.43V927.83ZM388.76 853.76L395.15 855.74C389.21 871.04 379.94 886.25 370.22 896.33C369.5 894.8 367.61 891.2 366.35 889.67C375.26 880.94 383.72 867.44 388.76 853.76ZM379.4 876.98L385.7 870.59L385.88 870.68V936.11H379.4V876.98ZM483.17 862.58H540.5V868.7H483.17V862.58ZM484.34 883.46H539.78V934.22H533.3V889.49H490.64V934.76H484.34V883.46ZM500.09 863.48H506.48V887.78H500.09V863.48ZM516.83 863.48H523.31V887.78H516.83V863.48ZM487.22 922.88H537.89V928.82H487.22V922.88ZM500.63 887.6H506.48V927.38H500.63V887.6ZM516.83 887.6H522.68V927.38H516.83V887.6ZM477.77 853.67L483.89 855.65C478.31 870.5 469.67 885.44 460.4 895.43C459.77 893.9 457.88 890.48 456.62 888.86C465.08 880.31 473 867.08 477.77 853.67ZM468.86 877.07L475.16 870.77L475.25 870.86V936.2H468.86V877.07ZM594.77 863.12H620.15V869.06H594.77V863.12ZM586.58 903.26H624.47V936.02H617.99V909.11H592.88V936.29H586.58V903.26ZM589.28 926.39H621.41V932.33H589.28V926.39ZM597.38 853.31L603.86 855.11C599 867.08 591.08 878.33 582.89 885.44C581.81 884.27 579.11 881.93 577.58 880.94C585.86 874.46 593.15 864.2 597.38 853.31ZM618.26 863.12H619.52L620.69 862.85L624.92 864.83C617.18 887.15 598.64 901.46 579.47 908.39C578.66 906.68 576.95 904.16 575.6 902.9C593.69 897.23 611.69 883.37 618.26 864.29V863.12ZM594.23 867.8C599.81 880.58 613.04 894.71 632.84 900.74C631.49 902 629.6 904.7 628.7 906.32C608.63 899.3 595.4 884.36 589.28 870.95L594.23 867.8ZM549.59 872.75H581.27V879.14H549.59V872.75ZM563.18 853.4H569.57V936.11H563.18V853.4ZM562.91 876.71L567.14 878.15C564.17 892.64 557.78 910.19 551.03 919.28C550.31 917.48 548.69 914.87 547.43 913.34C553.82 905.24 560.21 889.67 562.91 876.71ZM569.12 882.74C571.28 884.9 579.2 894.53 581 896.96L576.95 902.18C574.79 898.22 568.31 888.95 565.79 885.71L569.12 882.74Z" fill="black"/>
</svg>
